<svg id="JMRL" data-name="JMRL_logo" xmlns="http://www.w3.org/2000/svg" viewBox="0 0 355.76 71.57" preserveAspectRatio="xMinYMin meet">
  <title>Jefferson Madison Regional Library logo</title>
  <g>
    <path d="M92.88,50.38l2-2.24a3.59,3.59,0,0,0,2.65,1.45c1.2,0,1.95-.72,1.95-2.4V37.83h3.28v9.5a5.28,5.28,0,0,1-1.37,3.88,5.2,5.2,0,0,1-3.78,1.35A5.92,5.92,0,0,1,92.88,50.38Z" style="fill: #82492c"/>
    <path d="M107.06,37.83h11v2.85h-7.78v2.94h6.85v2.84h-6.85v3h7.88v2.84h-11Z" style="fill: #82492c"/>
    <path d="M122,37.83h11v2.91h-7.86v3.09h6.93v2.9h-6.93v5.62H122Z" style="fill: #82492c"/>
    <path d="M136.63,37.83h11.05v2.91h-7.86v3.09h6.92v2.9h-6.92v5.62h-3.19Z" style="fill: #82492c"/>
    <path d="M151.27,37.83h10.95v2.85h-7.78v2.94h6.84v2.84h-6.84v3h7.88v2.84h-11Z" style="fill: #82492c"/>
    <path d="M166.19,37.83h6.64a5.81,5.81,0,0,1,4.23,1.48,4.55,4.55,0,0,1,1.24,3.32v0a4.49,4.49,0,0,1-3.1,4.49l3.54,5.19H175l-3.1-4.64h-2.51v4.64h-3.2Zm6.43,7.05c1.56,0,2.45-.82,2.45-2.05v0c0-1.37-.95-2.07-2.51-2.07h-3.17v4.16Z" style="fill: #82492c"/>
    <path d="M181.23,50.23,183.12,48a6.63,6.63,0,0,0,4.33,1.77c1.31,0,2.09-.52,2.09-1.37v0c0-.81-.5-1.23-2.92-1.85-2.92-.75-4.81-1.56-4.81-4.43v0c0-2.63,2.12-4.37,5.08-4.37a8.36,8.36,0,0,1,5.39,1.85l-1.66,2.4a6.8,6.8,0,0,0-3.77-1.43c-1.23,0-1.87.56-1.87,1.26v0c0,1,.62,1.27,3.13,1.91,2.95.77,4.6,1.83,4.6,4.35v.05c0,2.88-2.19,4.5-5.32,4.5A9.22,9.22,0,0,1,181.23,50.23Z" style="fill: #82492c"/>
    <path d="M195.89,45.13v0a7.71,7.71,0,0,1,15.42,0v0a7.71,7.71,0,0,1-15.42,0Zm12.09,0v0a4.41,4.41,0,0,0-4.4-4.56,4.34,4.34,0,0,0-4.35,4.52v0a4.4,4.4,0,0,0,4.39,4.56A4.34,4.34,0,0,0,208,45.13Z" style="fill: #82492c"/>
    <path d="M215.2,37.83h2.94l6.8,8.94V37.83h3.15V52.35h-2.72l-7-9.23v9.23H215.2Z" style="fill: #82492c"/>
    <path d="M231.91,44.45h8.87V47.4h-8.87Z" style="fill: #82492c"/>
    <path d="M244.6,37.83H248L251.85,44l3.82-6.14h3.44V52.35h-3.17V42.87l-4.09,6.2h-.08l-4-6.13v9.41H244.6Z" style="fill: #82492c"/>
    <path d="M268.61,37.73h2.94l6.22,14.62h-3.34l-1.32-3.26H267l-1.33,3.26h-3.25ZM272,46.27,270,41.57l-1.93,4.7Z" style="fill: #82492c"/>
    <path d="M281.05,37.83h5.66c4.56,0,7.71,3.14,7.71,7.22v0c0,4.08-3.15,7.26-7.71,7.26h-5.66Zm5.66,11.64a4.13,4.13,0,0,0,4.37-4.34v0a4.16,4.16,0,0,0-4.37-4.37h-2.47v8.75Z" style="fill: #82492c"/>
    <path d="M298.45,37.83h3.19V52.35h-3.19Z" style="fill: #82492c"/>
    <path d="M305.31,50.23,307.2,48a6.68,6.68,0,0,0,4.34,1.77c1.3,0,2.09-.52,2.09-1.37v0c0-.81-.5-1.23-2.93-1.85-2.92-.75-4.81-1.56-4.81-4.43v0c0-2.63,2.12-4.37,5.09-4.37a8.33,8.33,0,0,1,5.38,1.85l-1.66,2.4a6.78,6.78,0,0,0-3.77-1.43c-1.22,0-1.87.56-1.87,1.26v0c0,1,.63,1.27,3.14,1.91,2.94.77,4.6,1.83,4.6,4.35v.05c0,2.88-2.2,4.5-5.33,4.5A9.24,9.24,0,0,1,305.31,50.23Z" style="fill: #82492c"/>
    <path d="M320,45.13v0a7.71,7.71,0,0,1,15.42,0v0a7.71,7.71,0,0,1-15.42,0Zm12.08,0v0a4.4,4.4,0,0,0-4.39-4.56,4.34,4.34,0,0,0-4.36,4.52v0a4.41,4.41,0,0,0,4.39,4.56A4.34,4.34,0,0,0,332.06,45.13Z" style="fill: #82492c"/>
    <path d="M339.28,37.83h2.94l6.8,8.94V37.83h3.15V52.35h-2.71l-7-9.23v9.23h-3.15Z" style="fill: #82492c"/>
    <path d="M95.45,60.29h4.77a4.35,4.35,0,0,1,3.15,1.11,3,3,0,0,1,.86,2.18v0a3.25,3.25,0,0,1-3,3.23l3.41,4.53h-1.54l-3.22-4.31H96.7v4.31H95.45Zm4.66,5.65c1.66,0,2.85-.85,2.85-2.28v0c0-1.37-1-2.19-2.83-2.19H96.7v4.5Z" style="fill: #82492c"/>
    <path d="M109.12,60.29h8v1.14h-6.77v3.79h6v1.13h-6v3.89h6.84v1.14h-8.09Z" style="fill: #82492c"/>
    <path d="M121.46,65.86v0A5.56,5.56,0,0,1,127,60.1a5.85,5.85,0,0,1,4.13,1.47l-.81,1A4.71,4.71,0,0,0,127,61.25a4.34,4.34,0,0,0-4.22,4.55v0a4.29,4.29,0,0,0,4.39,4.61,5.2,5.2,0,0,0,3.2-1.11V66.58H127V65.45h4.58v4.42a6.71,6.71,0,0,1-4.45,1.7A5.44,5.44,0,0,1,121.46,65.86Z" style="fill: #82492c"/>
    <path d="M136.69,60.29H138V71.38h-1.26Z" style="fill: #82492c"/>
    <path d="M142.91,65.86v0a5.62,5.62,0,0,1,5.67-5.73,5.56,5.56,0,0,1,5.64,5.7s0,0,0,0a5.66,5.66,0,1,1-11.31,0Zm10,0v0a4.36,4.36,0,1,0-8.71,0v0a4.41,4.41,0,0,0,4.37,4.58A4.35,4.35,0,0,0,152.92,65.86Z" style="fill: #82492c"/>
    <path d="M159.09,60.29h1.17l7,8.88V60.29h1.22V71.38h-1l-7.15-9.1v9.1h-1.22Z" style="fill: #82492c"/>
    <path d="M177.92,60.21h1.17l5,11.17h-1.35l-1.29-2.93h-6l-1.31,2.93h-1.29ZM181,67.32l-2.52-5.66L176,67.32Z" style="fill: #82492c"/>
    <path d="M188.55,60.29h1.25v9.93H196v1.16h-7.49Z" style="fill: #82492c"/>
    <path d="M207.53,60.29h1.25v9.93H215v1.16h-7.49Z" style="fill: #82492c"/>
    <path d="M219.66,60.29h1.25V71.38h-1.25Z" style="fill: #82492c"/>
    <path d="M226.37,60.29h4.72a4,4,0,0,1,2.89,1A2.45,2.45,0,0,1,234.7,63v0a2.67,2.67,0,0,1-1.76,2.56c1.31.4,2.37,1.16,2.37,2.68v0c0,1.9-1.59,3-4,3h-4.92Zm4.51,4.94c1.5,0,2.55-.68,2.55-2v0c0-1.1-.87-1.81-2.45-1.81H227.6v3.82Zm.44,5c1.68,0,2.73-.74,2.73-2v0c0-1.21-1-1.9-3-1.9h-3.5v3.91Z" style="fill: #82492c"/>
    <path d="M240,60.29h4.76a4.37,4.37,0,0,1,3.16,1.11,3.07,3.07,0,0,1,.85,2.18v0a3.25,3.25,0,0,1-3,3.23l3.41,4.53h-1.54l-3.21-4.31h-3.17v4.31H240Zm4.65,5.65c1.67,0,2.85-.85,2.85-2.28v0c0-1.37-1-2.19-2.83-2.19h-3.42v4.5Z" style="fill: #82492c"/>
    <path d="M257.79,60.21H259L264,71.38h-1.36l-1.29-2.93h-6L254,71.38h-1.28Zm3.09,7.11-2.52-5.66-2.54,5.66Z" style="fill: #82492c"/>
    <path d="M268.42,60.29h4.77a4.36,4.36,0,0,1,3.15,1.11,3,3,0,0,1,.85,2.18v0a3.25,3.25,0,0,1-3,3.23l3.41,4.53h-1.54l-3.21-4.31h-3.17v4.31h-1.25Zm4.65,5.65c1.67,0,2.85-.85,2.85-2.28v0c0-1.37-1-2.19-2.83-2.19h-3.42v4.5Z" style="fill: #82492c"/>
    <path d="M285.16,67l-4.61-6.7h1.52l3.74,5.54,3.77-5.54H291L286.43,67v4.41h-1.27Z" style="fill: #82492c"/>
  </g>
  <path d="M6.52,29.82,11.73,24c2.15,2.37,4.25,3.76,6.88,3.76,3.12,0,5.06-1.88,5.06-6.23V0H0V33.44H10.8A16.05,16.05,0,0,1,6.52,29.82Z" style="fill: #faa61a"/>
  <g>
    <polygon points="55.94 26.43 45.46 10.52 45.46 33.44 66.73 33.44 66.73 10.39 56.16 26.43 55.94 26.43" style="fill: #82492c"/>
    <polygon points="64.37 0 47.95 0 56.16 13.21 64.37 0" style="fill: #82492c"/>
    <path d="M28.18,32a11.49,11.49,0,0,1-1.85,1.47h11.5V0h-6.1V21.92C31.73,26.38,30.44,29.71,28.18,32Z" style="fill: #82492c"/>
  </g>
  <polygon points="23.1 60.93 18.16 60.93 18.16 71.28 30.13 71.28 23.21 60.93 23.1 60.93" style="fill: #7fb539"/>
  <path d="M35,37.84a11.52,11.52,0,0,1,1.62,1.32,11.78,11.78,0,0,1,3.23,8.6v.11a11.68,11.68,0,0,1-8.07,11.66l8,11.75h8.69V37.84Z" style="fill: #7fb539"/>
  <path d="M31.43,48.19c0-3.55-2.47-5.38-6.5-5.38H18.16V53.62h6.93c4,0,6.34-2.15,6.34-5.32Z" style="fill: #7fb539"/>
  <polygon points="81.75 37.84 56.99 37.84 56.99 64.27 74.81 64.27 74.81 71.28 81.75 71.28 81.75 37.84" style="fill: #00a5c7"/>
  <g>
    <path d="M211.46,23.2,212,22a4.52,4.52,0,0,0,2.45.73,1.92,1.92,0,0,0,2.17-2.11v-.53a2.88,2.88,0,0,1-2.42,1.26,3.09,3.09,0,0,1-3.12-3.21v0a3.09,3.09,0,0,1,3.12-3.22,3,3,0,0,1,2.41,1.17v-1h1.57v5.46a3.54,3.54,0,0,1-.87,2.59,3.88,3.88,0,0,1-2.82.92A5.94,5.94,0,0,1,211.46,23.2Zm5.21-5v0a1.92,1.92,0,0,0-2-1.9,1.86,1.86,0,0,0-1.95,1.89v0a1.87,1.87,0,0,0,1.95,1.9A1.92,1.92,0,0,0,216.67,18.16Z" style="fill: #7fb539"/>
    <path d="M220.7,15.05h1.58V16.6a2.43,2.43,0,0,1,2.43-1.68v1.66h-.09c-1.38,0-2.34.9-2.34,2.72v2.61H220.7Z" style="fill: #7fb539"/>
    <path d="M226,18.52v0a3.66,3.66,0,0,1,7.32,0v0a3.59,3.59,0,0,1-3.68,3.58A3.55,3.55,0,0,1,226,18.52Zm5.75,0v0a2.13,2.13,0,0,0-2.11-2.21,2.07,2.07,0,0,0-2.07,2.19v0a2.13,2.13,0,0,0,2.1,2.21A2.07,2.07,0,0,0,231.73,18.52Z" style="fill: #7fb539"/>
    <path d="M234.52,15.05h1.61l1.38,4.71L239,15h1.34l1.54,4.74,1.4-4.71h1.57L242.63,22h-1.4l-1.53-4.7L238.15,22h-1.41Z" style="fill: #7fb539"/>
    <path d="M245.79,20.13h1.73v1.78h-1.73Z" style="fill: #7fb539"/>
  </g>
  <g>
    <path d="M254.42,12.42H256v9.49h-1.58Z" style="fill: #00a5c7"/>
    <path d="M258.19,18.51v0a3.4,3.4,0,0,1,3.36-3.57c2.18,0,3.29,1.71,3.29,3.69,0,.14,0,.28,0,.44h-5a1.91,1.91,0,0,0,2,1.74A2.46,2.46,0,0,0,263.6,20l.92.82a3.58,3.58,0,0,1-6.33-2.27Zm5.09-.51a1.8,1.8,0,0,0-1.75-1.81A1.86,1.86,0,0,0,259.75,18Z" style="fill: #00a5c7"/>
    <path d="M271.14,21.91v-.84a2.77,2.77,0,0,1-2.22,1,2.2,2.2,0,0,1-2.45-2.12v0c0-1.52,1.19-2.25,2.79-2.25a5.68,5.68,0,0,1,1.89.29v-.13c0-.95-.59-1.47-1.69-1.47a4.81,4.81,0,0,0-2,.43l-.43-1.26a5.9,5.9,0,0,1,2.62-.58c2,0,3,1.07,3,2.9v4.07Zm0-2.87a4.38,4.38,0,0,0-1.57-.27c-1,0-1.58.4-1.58,1.06v0c0,.65.59,1,1.33,1,1,0,1.82-.58,1.82-1.44Z" style="fill: #00a5c7"/>
    <path d="M275.09,15.05h1.58V16.6a2.43,2.43,0,0,1,2.43-1.68v1.66H279c-1.38,0-2.34.9-2.34,2.72v2.61h-1.58Z" style="fill: #00a5c7"/>
    <path d="M281,15.05h1.58v1.07a2.45,2.45,0,0,1,2.14-1.21,2.35,2.35,0,0,1,2.44,2.64v4.36h-1.57V18c0-1.06-.53-1.67-1.47-1.67a1.52,1.52,0,0,0-1.54,1.7v3.87H281Z" style="fill: #00a5c7"/>
    <path d="M289.46,20.13h1.73v1.78h-1.73Z" style="fill: #00a5c7"/>
  </g>
  <g>
    <path d="M297.62,18.52v0a3.53,3.53,0,0,1,3.56-3.58,3.45,3.45,0,0,1,2.75,1.18l-1,1.05a2.34,2.34,0,0,0-1.78-.86,2.06,2.06,0,0,0-2,2.19v0a2.08,2.08,0,0,0,2.05,2.21,2.43,2.43,0,0,0,1.78-.85l1,.93a3.47,3.47,0,0,1-2.81,1.29A3.51,3.51,0,0,1,297.62,18.52Z" style="fill: #faa61a"/>
    <path d="M305.37,18.52v0a3.66,3.66,0,0,1,7.32,0v0A3.59,3.59,0,0,1,309,22.07,3.55,3.55,0,0,1,305.37,18.52Zm5.75,0v0A2.13,2.13,0,0,0,309,16.28a2.07,2.07,0,0,0-2.07,2.19v0A2.13,2.13,0,0,0,309,20.7,2.07,2.07,0,0,0,311.12,18.52Z" style="fill: #faa61a"/>
    <path d="M314.81,15.05h1.57v1.07a2.47,2.47,0,0,1,2.15-1.21A2.36,2.36,0,0,1,321,17.55v4.36H319.4V18c0-1.06-.53-1.67-1.47-1.67a1.52,1.52,0,0,0-1.55,1.7v3.87h-1.57Z" style="fill: #faa61a"/>
    <path d="M323.39,15.05H325v1.07a2.47,2.47,0,0,1,2.15-1.21,2.36,2.36,0,0,1,2.44,2.64v4.36H328V18c0-1.06-.53-1.67-1.47-1.67A1.52,1.52,0,0,0,325,18v3.87h-1.57Z" style="fill: #faa61a"/>
    <path d="M331.59,18.51v0A3.4,3.4,0,0,1,335,14.91c2.18,0,3.29,1.71,3.29,3.69,0,.14,0,.28,0,.44h-5a1.91,1.91,0,0,0,2,1.74A2.46,2.46,0,0,0,337,20l.92.82a3.58,3.58,0,0,1-6.33-2.27Zm5.09-.51a1.8,1.8,0,0,0-1.75-1.81A1.86,1.86,0,0,0,333.15,18Z" style="fill: #faa61a"/>
    <path d="M340,18.52v0a3.54,3.54,0,0,1,3.57-3.58,3.43,3.43,0,0,1,2.74,1.18l-1,1.05a2.32,2.32,0,0,0-1.78-.86,2.06,2.06,0,0,0-2,2.19v0a2.08,2.08,0,0,0,2,2.21,2.43,2.43,0,0,0,1.78-.85l.95.93a3.47,3.47,0,0,1-2.81,1.29A3.51,3.51,0,0,1,340,18.52Z" style="fill: #faa61a"/>
    <path d="M348.61,20V16.4h-.87V15.05h.87V13.16h1.57v1.89H352V16.4h-1.85v3.37a.75.75,0,0,0,.85.86,2,2,0,0,0,1-.24v1.29a2.75,2.75,0,0,1-1.41.35A1.76,1.76,0,0,1,348.61,20Z" style="fill: #faa61a"/>
    <path d="M354,20.13h1.73v1.78H354Z" style="fill: #faa61a"/>
  </g>
</svg>
