<svg version="1.1" id="JMRL" data-name="JMRL_logo" xmlns="http://www.w3.org/2000/svg" xmlns:xlink="http://www.w3.org/1999/xlink" 
viewBox="0 0 355.8 71.6" style="enable-background:new 0 0 355.8 71.6;" xml:space="preserve" preserveAspectRatio="xMinYMin meet">
<style type="text/css">
.st0{fill:#82492C;
.st1{fill:#FAA61A;
.st2{fill:#7FB539;
.st3{fill:#00A5C7;
</style>
<g>
<path class="st0" d="M92.9,50.4l2-2.2c0.8,0.9,1.6,1.4,2.7,1.4c1.2,0,1.9-0.7,1.9-2.4v-9.4h3.3v9.5c0,1.7-0.5,3-1.4,3.9
c-0.9,0.9-2.2,1.3-3.8,1.3C95.4,52.6,93.9,51.6,92.9,50.4z"/>
<path class="st0" d="M107.1,37.8H118v2.8h-7.8v2.9h6.8v2.8h-6.8v3h7.9v2.8h-11V37.8z"/>
<path class="st0" d="M122,37.8h11v2.9h-7.9v3.1h6.9v2.9h-6.9v5.6H122V37.8z"/>
<path class="st0" d="M136.6,37.8h11v2.9h-7.9v3.1h6.9v2.9h-6.9v5.6h-3.2V37.8z"/>
<path class="st0" d="M151.3,37.8h10.9v2.8h-7.8v2.9h6.8v2.8h-6.8v3h7.9v2.8h-11V37.8z"/>
<path class="st0" d="M166.2,37.8h6.6c1.8,0,3.3,0.5,4.2,1.5c0.8,0.8,1.2,2,1.2,3.3v0c0,2.3-1.3,3.8-3.1,4.5l3.5,5.2H175l-3.1-4.6h0
h-2.5v4.6h-3.2V37.8z M172.6,44.9c1.6,0,2.4-0.8,2.4-2.1v0c0-1.4-1-2.1-2.5-2.1h-3.2v4.2H172.6z"/>
<path class="st0" d="M181.2,50.2l1.9-2.3c1.3,1.1,2.7,1.8,4.3,1.8c1.3,0,2.1-0.5,2.1-1.4v0c0-0.8-0.5-1.2-2.9-1.8
c-2.9-0.7-4.8-1.6-4.8-4.4v0c0-2.6,2.1-4.4,5.1-4.4c2.1,0,3.9,0.7,5.4,1.8l-1.7,2.4c-1.3-0.9-2.5-1.4-3.8-1.4
c-1.2,0-1.9,0.6-1.9,1.3v0c0,1,0.6,1.3,3.1,1.9c2.9,0.8,4.6,1.8,4.6,4.4v0c0,2.9-2.2,4.5-5.3,4.5C185.2,52.6,183,51.8,181.2,50.2z"
/>
<path class="st0" d="M195.9,45.1L195.9,45.1c0-4.2,3.3-7.5,7.7-7.5c4.5,0,7.7,3.3,7.7,7.5v0c0,4.1-3.3,7.5-7.7,7.5
C199.1,52.6,195.9,49.3,195.9,45.1z M208,45.1L208,45.1c0-2.5-1.8-4.6-4.4-4.6c-2.6,0-4.4,2-4.4,4.5v0c0,2.5,1.8,4.6,4.4,4.6
C206.2,49.7,208,47.6,208,45.1z"/>
<path class="st0" d="M215.2,37.8h2.9l6.8,8.9v-8.9h3.2v14.5h-2.7l-7-9.2v9.2h-3.2V37.8z"/>
<path class="st0" d="M231.9,44.4h8.9v2.9h-8.9V44.4z"/>
<path class="st0" d="M244.6,37.8h3.4l3.8,6.1l3.8-6.1h3.4v14.5h-3.2v-9.5l-4.1,6.2h-0.1l-4-6.1v9.4h-3.1V37.8z"/>
<path class="st0" d="M268.6,37.7h2.9l6.2,14.6h-3.3l-1.3-3.3H267l-1.3,3.3h-3.3L268.6,37.7z M272,46.3l-1.9-4.7l-1.9,4.7H272z"/>
<path class="st0" d="M281.1,37.8h5.7c4.6,0,7.7,3.1,7.7,7.2v0c0,4.1-3.1,7.3-7.7,7.3h-5.7V37.8z M286.7,49.5c2.6,0,4.4-1.8,4.4-4.3
v0c0-2.6-1.8-4.4-4.4-4.4h-2.5v8.7H286.7z"/>
<path class="st0" d="M298.4,37.8h3.2v14.5h-3.2V37.8z"/>
<path class="st0" d="M305.3,50.2l1.9-2.3c1.3,1.1,2.7,1.8,4.3,1.8c1.3,0,2.1-0.5,2.1-1.4v0c0-0.8-0.5-1.2-2.9-1.8
c-2.9-0.7-4.8-1.6-4.8-4.4v0c0-2.6,2.1-4.4,5.1-4.4c2.1,0,3.9,0.7,5.4,1.8l-1.7,2.4c-1.3-0.9-2.5-1.4-3.8-1.4
c-1.2,0-1.9,0.6-1.9,1.3v0c0,1,0.6,1.3,3.1,1.9c2.9,0.8,4.6,1.8,4.6,4.4v0c0,2.9-2.2,4.5-5.3,4.5C309.3,52.6,307.1,51.8,305.3,50.2
z"/>
<path class="st0" d="M320,45.1L320,45.1c0-4.2,3.3-7.5,7.7-7.5c4.5,0,7.7,3.3,7.7,7.5v0c0,4.1-3.3,7.5-7.7,7.5
C323.2,52.6,320,49.3,320,45.1z M332.1,45.1L332.1,45.1c0-2.5-1.8-4.6-4.4-4.6c-2.6,0-4.4,2-4.4,4.5v0c0,2.5,1.8,4.6,4.4,4.6
C330.3,49.7,332.1,47.6,332.1,45.1z"/>
<path class="st0" d="M339.3,37.8h2.9l6.8,8.9v-8.9h3.2v14.5h-2.7l-7-9.2v9.2h-3.2V37.8z"/>
<path class="st0" d="M95.5,60.3h4.8c1.4,0,2.5,0.4,3.2,1.1c0.5,0.5,0.9,1.3,0.9,2.2v0c0,1.8-1.3,2.9-3,3.2l3.4,4.5h-1.5l-3.2-4.3h0
h-3.1v4.3h-1.2V60.3z M100.1,65.9c1.7,0,2.8-0.9,2.8-2.3v0c0-1.4-1-2.2-2.8-2.2h-3.4v4.5H100.1z"/>
<path class="st0" d="M109.1,60.3h8v1.1h-6.8v3.8h6v1.1h-6v3.9h6.8v1.1h-8.1V60.3z"/>
<path class="st0" d="M121.5,65.9L121.5,65.9c0-3.1,2.2-5.8,5.6-5.8c1.9,0,3,0.5,4.1,1.5l-0.8,1c-0.9-0.7-1.8-1.3-3.4-1.3
c-2.5,0-4.2,2.1-4.2,4.5v0c0,2.6,1.7,4.6,4.4,4.6c1.3,0,2.4-0.5,3.2-1.1v-2.8H127v-1.1h4.6v4.4c-1,0.9-2.6,1.7-4.5,1.7
C123.6,71.6,121.5,69,121.5,65.9z"/>
<path class="st0" d="M136.7,60.3h1.3v11.1h-1.3V60.3z"/>
<path class="st0" d="M142.9,65.9L142.9,65.9c0-3.1,2.3-5.8,5.7-5.8c3.4,0,5.6,2.6,5.6,5.7c0,0,0,0,0,0c0,3.1-2.3,5.7-5.7,5.7
C145.2,71.6,142.9,68.9,142.9,65.9z M152.9,65.9L152.9,65.9c0-2.6-1.8-4.6-4.4-4.6c-2.5,0-4.3,2-4.3,4.5v0c0,2.5,1.8,4.6,4.4,4.6
C151.1,70.4,152.9,68.4,152.9,65.9z"/>
<path class="st0" d="M159.1,60.3h1.2l7,8.9v-8.9h1.2v11.1h-1l-7.2-9.1v9.1h-1.2V60.3z"/>
<path class="st0" d="M177.9,60.2h1.2l5.1,11.2h-1.3l-1.3-2.9h-6l-1.3,2.9h-1.3L177.9,60.2z M181,67.3l-2.5-5.7l-2.5,5.7H181z"/>
<path class="st0" d="M188.5,60.3h1.3v9.9h6.2v1.2h-7.5V60.3z"/>
<path class="st0" d="M207.5,60.3h1.3v9.9h6.2v1.2h-7.5V60.3z"/>
<path class="st0" d="M219.7,60.3h1.3v11.1h-1.3V60.3z"/>
<path class="st0" d="M226.4,60.3h4.7c1.3,0,2.3,0.4,2.9,1c0.5,0.5,0.7,1.1,0.7,1.8v0c0,1.4-0.9,2.2-1.8,2.6
c1.3,0.4,2.4,1.2,2.4,2.7v0c0,1.9-1.6,3-4,3h-4.9V60.3z M230.9,65.2c1.5,0,2.6-0.7,2.6-2v0c0-1.1-0.9-1.8-2.5-1.8h-3.4v3.8H230.9z
M231.3,70.3c1.7,0,2.7-0.7,2.7-2v0c0-1.2-1-1.9-2.9-1.9h-3.5v3.9H231.3z"/>
<path class="st0" d="M240,60.3h4.8c1.4,0,2.5,0.4,3.2,1.1c0.5,0.5,0.9,1.3,0.9,2.2v0c0,1.8-1.3,2.9-3,3.2l3.4,4.5h-1.5l-3.2-4.3h0
h-3.1v4.3H240V60.3z M244.7,65.9c1.7,0,2.9-0.9,2.9-2.3v0c0-1.4-1-2.2-2.8-2.2h-3.4v4.5H244.7z"/>
<path class="st0" d="M257.8,60.2h1.2l5.1,11.2h-1.4l-1.3-2.9h-6l-1.3,2.9h-1.3L257.8,60.2z M260.9,67.3l-2.5-5.7l-2.5,5.7H260.9z"
/>
<path class="st0" d="M268.4,60.3h4.8c1.4,0,2.5,0.4,3.2,1.1c0.5,0.5,0.9,1.3,0.9,2.2v0c0,1.8-1.3,2.9-3,3.2l3.4,4.5h-1.5l-3.2-4.3
h0h-3.1v4.3h-1.2V60.3z M273.1,65.9c1.7,0,2.9-0.9,2.9-2.3v0c0-1.4-1-2.2-2.8-2.2h-3.4v4.5H273.1z"/>
<path class="st0" d="M285.2,67l-4.6-6.7h1.5l3.7,5.5l3.8-5.5h1.5l-4.6,6.7v4.4h-1.3V67z"/>
</g>
<path class="st1" d="M6.5,29.8l5.2-5.8c2.2,2.4,4.2,3.8,6.9,3.8c3.1,0,5.1-1.9,5.1-6.2V0H0v33.4h10.8C9.1,32.4,7.7,31.2,6.5,29.8z"
/>
<g>
<polygon class="st0" points="55.9,26.4 45.5,10.5 45.5,33.4 66.7,33.4 66.7,10.4 56.2,26.4 "/>
<polygon class="st0" points="64.4,0 47.9,0 56.2,13.2 "/>
<path class="st0" d="M28.2,32c-0.6,0.6-1.2,1-1.9,1.5H33h4.8V0H33h-1.3v21.9C31.7,26.4,30.4,29.7,28.2,32z"/>
</g>
<polygon class="st2" points="23.1,60.9 18.2,60.9 18.2,71.3 30.1,71.3 23.2,60.9 "/>
<path class="st2" d="M35,37.8c0.6,0.4,1.1,0.8,1.6,1.3c2.1,2.1,3.2,5.1,3.2,8.6v0.1c0,6.1-3.3,9.9-8.1,11.7l8,11.7h8.7V37.8H35z"/>
<path class="st2" d="M31.4,48.2c0-3.5-2.5-5.4-6.5-5.4h-6.8v10.8h6.9c4,0,6.3-2.2,6.3-5.3V48.2z"/>
<polygon class="st3" points="81.8,37.8 57,37.8 57,64.3 74.8,64.3 74.8,71.3 81.8,71.3 "/>
<g>
<path class="st2" d="M211.5,23.2L212,22c0.7,0.5,1.5,0.7,2.4,0.7c1.4,0,2.2-0.7,2.2-2.1v-0.5c-0.6,0.7-1.3,1.3-2.4,1.3
c-1.6,0-3.1-1.2-3.1-3.2v0c0-2,1.5-3.2,3.1-3.2c1.2,0,1.9,0.5,2.4,1.2v-1h1.6v5.5c0,1.2-0.3,2-0.9,2.6c-0.6,0.6-1.6,0.9-2.8,0.9
C213.4,24,212.3,23.7,211.5,23.2z M216.7,18.2L216.7,18.2c0-1.2-0.9-1.9-2-1.9c-1.1,0-2,0.8-2,1.9v0c0,1.1,0.9,1.9,2,1.9
C215.7,20,216.7,19.3,216.7,18.2z"/>
<path class="st2" d="M220.7,15h1.6v1.5c0.4-1,1.2-1.7,2.4-1.7v1.7h-0.1c-1.4,0-2.3,0.9-2.3,2.7v2.6h-1.6V15z"/>
<path class="st2" d="M226,18.5L226,18.5c0-2,1.6-3.6,3.7-3.6c2.1,0,3.7,1.6,3.7,3.6v0c0,2-1.6,3.6-3.7,3.6
C227.5,22.1,226,20.5,226,18.5z M231.7,18.5L231.7,18.5c0-1.2-0.9-2.2-2.1-2.2c-1.3,0-2.1,1-2.1,2.2v0c0,1.2,0.9,2.2,2.1,2.2
C230.9,20.7,231.7,19.7,231.7,18.5z"/>
<path class="st2" d="M234.5,15h1.6l1.4,4.7L239,15h1.3l1.5,4.7l1.4-4.7h1.6l-2.2,6.9h-1.4l-1.5-4.7l-1.5,4.7h-1.4L234.5,15z"/>
<path class="st2" d="M245.8,20.1h1.7v1.8h-1.7V20.1z"/>
</g>
<g>
<path class="st3" d="M254.4,12.4h1.6v9.5h-1.6V12.4z"/>
<path class="st3" d="M258.2,18.5L258.2,18.5c0-2,1.4-3.6,3.4-3.6c2.2,0,3.3,1.7,3.3,3.7c0,0.1,0,0.3,0,0.4h-5c0.2,1.1,1,1.7,2,1.7
c0.8,0,1.3-0.3,1.9-0.8l0.9,0.8c-0.6,0.8-1.5,1.3-2.8,1.3C259.7,22.1,258.2,20.6,258.2,18.5z M263.3,18c-0.1-1-0.7-1.8-1.7-1.8
c-1,0-1.6,0.7-1.8,1.8H263.3z"/>
<path class="st3" d="M271.1,21.9v-0.8c-0.5,0.6-1.2,1-2.2,1c-1.3,0-2.4-0.7-2.4-2.1v0c0-1.5,1.2-2.2,2.8-2.2c0.8,0,1.4,0.1,1.9,0.3
v-0.1c0-0.9-0.6-1.5-1.7-1.5c-0.8,0-1.3,0.2-2,0.4l-0.4-1.3c0.8-0.3,1.5-0.6,2.6-0.6c2,0,3,1.1,3,2.9v4.1H271.1z M271.2,19
c-0.4-0.2-1-0.3-1.6-0.3c-1,0-1.6,0.4-1.6,1.1v0c0,0.6,0.6,1,1.3,1c1,0,1.8-0.6,1.8-1.4V19z"/>
<path class="st3" d="M275.1,15h1.6v1.5c0.4-1,1.2-1.7,2.4-1.7v1.7H279c-1.4,0-2.3,0.9-2.3,2.7v2.6h-1.6V15z"/>
<path class="st3" d="M281,15h1.6v1.1c0.4-0.7,1.1-1.2,2.1-1.2c1.5,0,2.4,1,2.4,2.6v4.4h-1.6V18c0-1.1-0.5-1.7-1.5-1.7
c-0.9,0-1.5,0.6-1.5,1.7v3.9H281V15z"/>
<path class="st3" d="M289.5,20.1h1.7v1.8h-1.7V20.1z"/>
</g>
<g>
<path class="st1" d="M297.6,18.5L297.6,18.5c0-2,1.5-3.6,3.6-3.6c1.3,0,2.1,0.5,2.7,1.2l-1,1.1c-0.5-0.5-1-0.9-1.8-0.9
c-1.1,0-2,1-2,2.2v0c0,1.2,0.8,2.2,2.1,2.2c0.7,0,1.3-0.4,1.8-0.9l0.9,0.9c-0.7,0.8-1.5,1.3-2.8,1.3
C299.1,22.1,297.6,20.5,297.6,18.5z"/>
<path class="st1" d="M305.4,18.5L305.4,18.5c0-2,1.6-3.6,3.7-3.6c2.1,0,3.7,1.6,3.7,3.6v0c0,2-1.6,3.6-3.7,3.6
C306.9,22.1,305.4,20.5,305.4,18.5z M311.1,18.5L311.1,18.5c0-1.2-0.9-2.2-2.1-2.2c-1.3,0-2.1,1-2.1,2.2v0c0,1.2,0.9,2.2,2.1,2.2
C310.3,20.7,311.1,19.7,311.1,18.5z"/>
<path class="st1" d="M314.8,15h1.6v1.1c0.4-0.7,1.1-1.2,2.1-1.2c1.5,0,2.4,1,2.4,2.6v4.4h-1.6V18c0-1.1-0.5-1.7-1.5-1.7
c-0.9,0-1.5,0.6-1.5,1.7v3.9h-1.6V15z"/>
<path class="st1" d="M323.4,15h1.6v1.1c0.4-0.7,1.1-1.2,2.1-1.2c1.5,0,2.4,1,2.4,2.6v4.4H328V18c0-1.1-0.5-1.7-1.5-1.7
c-0.9,0-1.5,0.6-1.5,1.7v3.9h-1.6V15z"/>
<path class="st1" d="M331.6,18.5L331.6,18.5c0-2,1.4-3.6,3.4-3.6c2.2,0,3.3,1.7,3.3,3.7c0,0.1,0,0.3,0,0.4h-5c0.2,1.1,1,1.7,2,1.7
c0.8,0,1.3-0.3,1.9-0.8l0.9,0.8c-0.7,0.8-1.5,1.3-2.8,1.3C333.1,22.1,331.6,20.6,331.6,18.5z M336.7,18c-0.1-1-0.7-1.8-1.7-1.8
c-1,0-1.6,0.7-1.8,1.8H336.7z"/>
<path class="st1" d="M340,18.5L340,18.5c0-2,1.5-3.6,3.6-3.6c1.3,0,2.1,0.5,2.7,1.2l-1,1.1c-0.5-0.5-1-0.9-1.8-0.9
c-1.1,0-2,1-2,2.2v0c0,1.2,0.8,2.2,2.1,2.2c0.7,0,1.3-0.4,1.8-0.9l0.9,0.9c-0.7,0.8-1.5,1.3-2.8,1.3C341.5,22.1,340,20.5,340,18.5z
"/>
<path class="st1" d="M348.6,20v-3.6h-0.9V15h0.9v-1.9h1.6V15h1.8v1.4h-1.8v3.4c0,0.6,0.3,0.9,0.8,0.9c0.4,0,0.7-0.1,1-0.2v1.3
c-0.4,0.2-0.8,0.4-1.4,0.4C349.4,22,348.6,21.5,348.6,20z"/>
<path class="st1" d="M354,20.1h1.7v1.8H354V20.1z"/>
</g>
</svg>